<?xml version="1.0" standalone="no"?>
<!DOCTYPE svg PUBLIC "-//W3C//DTD SVG 20010904//EN"
 "http://www.w3.org/TR/2001/REC-SVG-20010904/DTD/svg10.dtd">
<svg version="1.0" xmlns="http://www.w3.org/2000/svg"
 width="537.000000pt" height="537.000000pt" viewBox="0 0 537.000000 537.000000"
 preserveAspectRatio="xMidYMid meet">
<metadata>
Created by potrace 1.14, written by Peter Selinger 2001-2017
</metadata>
<g transform="translate(0.000000,537.000000) scale(0.100000,-0.100000)"
fill="#000000" stroke="none">
<path d="M2488 5365 c-2 -1 -34 -6 -73 -9 -74 -7 -84 -8 -210 -31 -111 -21
-111 -21 -200 -44 -44 -12 -87 -23 -96 -25 -62 -15 -271 -98 -394 -157 -177
-84 -459 -272 -585 -389 -127 -118 -234 -228 -300 -310 -25 -30 -47 -57 -50
-60 -30 -27 -169 -239 -236 -359 -89 -159 -208 -451 -239 -585 -3 -11 -16 -68
-29 -125 -23 -96 -30 -135 -42 -228 -2 -18 -7 -50 -10 -70 -13 -82 -12 -459 1
-573 8 -63 16 -125 19 -136 2 -12 7 -39 11 -60 12 -79 16 -99 41 -193 233
-881 879 -1577 1734 -1869 98 -33 209 -65 269 -77 9 -2 50 -10 91 -18 156 -32
279 -42 495 -42 161 0 349 10 364 20 3 1 31 6 61 10 213 26 579 145 780 253
135 73 175 96 178 104 2 4 8 8 13 8 20 0 244 160 329 235 154 135 272 257 363
375 23 30 47 61 54 68 17 18 136 198 173 262 48 84 160 316 160 332 0 8 4 18
9 23 14 16 87 240 116 360 31 128 31 125 39 190 4 28 9 66 12 85 13 87 19 189
19 365 -1 211 -9 309 -41 490 -34 188 -121 456 -214 652 -92 196 -271 470
-400 613 -162 179 -313 314 -485 435 -226 158 -475 282 -724 360 -102 33 -308
81 -401 94 -41 6 -91 14 -110 17 -38 6 -486 14 -492 9z"/>
</g>
</svg>
